REM DIRINDEX 1\2,1\3,1\4
REM DIRNAME cjc153,folder01,folder02,folder03
TITLE ""
FILE "Track34.mp3" MP3
  TRACK 01 AUDIO
    TITLE "0:"
    INDEX 01 00:00:00
  TRACK 02 AUDIO
    TITLE "4:cjc153_2078"
    INDEX 01 00:00:07
  TRACK 03 AUDIO
    TITLE "0:"
    INDEX 01 00:01:73
  TRACK 04 AUDIO
    TITLE "2:cjc153_2079"
    INDEX 01 00:02:57
  TRACK 05 AUDIO
    TITLE "0:"
    INDEX 01 00:03:70
  TRACK 06 AUDIO
    TITLE "3:cjc153_2080"
    INDEX 01 00:04:27
  TRACK 07 AUDIO
    TITLE "0:"
    INDEX 01 00:05:48
  TRACK 08 AUDIO
    TITLE "2:cjc153_2081"
    INDEX 01 00:06:20
  TRACK 09 AUDIO
    TITLE "0:"
    INDEX 01 00:07:27
  TRACK 10 AUDIO
    TITLE "3:cjc153_2082"
    INDEX 01 00:07:60
  TRACK 11 AUDIO
    TITLE "0:"
    INDEX 01 00:09:00
  TRACK 12 AUDIO
    TITLE "2:cjc153_2083"
    INDEX 01 00:09:45
  TRACK 13 AUDIO
    TITLE "0:"
    INDEX 01 00:10:51
  TRACK 14 AUDIO
    TITLE "3:cjc153_2084"
    INDEX 01 00:11:09
  TRACK 15 AUDIO
    TITLE "0:"
    INDEX 01 00:12:24
  TRACK 16 AUDIO
    TITLE "2:cjc153_2085"
    INDEX 01 00:12:69
  TRACK 17 AUDIO
    TITLE "0:"
    INDEX 01 00:14:11
  TRACK 18 AUDIO
    TITLE "3:cjc153_2086"
    INDEX 01 00:14:43
  TRACK 19 AUDIO
    TITLE "0:"
    INDEX 01 00:15:58
  TRACK 20 AUDIO
    TITLE "2:cjc153_2087"
    INDEX 01 00:16:30
  TRACK 21 AUDIO
    TITLE "0:"
    INDEX 01 00:17:57
  TRACK 22 AUDIO
    TITLE "3:cjc153_2088"
    INDEX 01 00:18:17
  TRACK 23 AUDIO
    TITLE "0:"
    INDEX 01 00:19:48
  TRACK 24 AUDIO
    TITLE "2:cjc153_2089"
    INDEX 01 00:20:20
  TRACK 25 AUDIO
    TITLE "0:"
    INDEX 01 00:21:19
  TRACK 26 AUDIO
    TITLE "3:cjc153_2090"
    INDEX 01 00:21:49
  TRACK 27 AUDIO
    TITLE "0:"
    INDEX 01 00:22:54
  TRACK 28 AUDIO
    TITLE "2:cjc153_2091"
    INDEX 01 00:23:24
  TRACK 29 AUDIO
    TITLE "0:"
    INDEX 01 00:24:29
  TRACK 30 AUDIO
    TITLE "3:cjc153_2092"
    INDEX 01 00:24:59
  TRACK 31 AUDIO
    TITLE "0:"
    INDEX 01 00:25:72
  TRACK 32 AUDIO
    TITLE "2:cjc153_2093"
    INDEX 01 00:26:42
  TRACK 33 AUDIO
    TITLE "0:"
    INDEX 01 00:27:34
  TRACK 34 AUDIO
    TITLE "3:cjc153_2094"
    INDEX 01 00:27:67
  TRACK 35 AUDIO
    TITLE "0:"
    INDEX 01 00:28:70
  TRACK 36 AUDIO
    TITLE "2:cjc153_2095"
    INDEX 01 00:29:40
  TRACK 37 AUDIO
    TITLE "0:"
    INDEX 01 00:30:44
  TRACK 38 AUDIO
    TITLE "3:cjc153_2096"
    INDEX 01 00:31:02
  TRACK 39 AUDIO
    TITLE "0:"
    INDEX 01 00:32:15
  TRACK 40 AUDIO
    TITLE "2:cjc153_2097"
    INDEX 01 00:32:60
  TRACK 41 AUDIO
    TITLE "0:"
    INDEX 01 00:33:60
  TRACK 42 AUDIO
    TITLE "3:cjc153_2098"
    INDEX 01 00:34:20
  TRACK 43 AUDIO
    TITLE "0:"
    INDEX 01 00:35:27
  TRACK 44 AUDIO
    TITLE "2:cjc153_2099"
    INDEX 01 00:35:72
  TRACK 45 AUDIO
    TITLE "0:"
    INDEX 01 00:37:10
  TRACK 46 AUDIO
    TITLE "3:cjc153_2100"
    INDEX 01 00:37:42
  TRACK 47 AUDIO
    TITLE "0:"
    INDEX 01 00:38:59
  TRACK 48 AUDIO
    TITLE "2:cjc153_2101"
    INDEX 01 00:39:29
  TRACK 49 AUDIO
    TITLE "0:"
    INDEX 01 00:40:52
  TRACK 50 AUDIO
    TITLE "3:cjc153_2102"
    INDEX 01 00:41:10
  TRACK 51 AUDIO
    TITLE "0:"
    INDEX 01 00:42:37
  TRACK 52 AUDIO
    TITLE "2:cjc153_2103"
    INDEX 01 00:43:07
  TRACK 53 AUDIO
    TITLE "0:"
    INDEX 01 00:44:22
  TRACK 54 AUDIO
    TITLE "3:cjc153_2104"
    INDEX 01 00:44:56
  TRACK 55 AUDIO
    TITLE "0:"
    INDEX 01 00:46:02
  TRACK 56 AUDIO
    TITLE "2:cjc153_2105"
    INDEX 01 00:46:49
  TRACK 57 AUDIO
    TITLE "0:"
    INDEX 01 00:47:66
  TRACK 58 AUDIO
    TITLE "3:cjc153_2106"
    INDEX 01 00:48:24
  TRACK 59 AUDIO
    TITLE "0:"
    INDEX 01 00:49:49
  TRACK 60 AUDIO
    TITLE "2:cjc153_2107"
    INDEX 01 00:50:17
  TRACK 61 AUDIO
    TITLE "0:"
    INDEX 01 00:51:34
  TRACK 62 AUDIO
    TITLE "3:cjc153_2108"
    INDEX 01 00:51:65
  TRACK 63 AUDIO
    TITLE "0:"
    INDEX 01 00:53:11
  TRACK 64 AUDIO
    TITLE "2:cjc153_2109"
    INDEX 01 00:53:57
  TRACK 65 AUDIO
    TITLE "0:"
    INDEX 01 00:55:03
  TRACK 66 AUDIO
    TITLE "3:cjc153_2110"
    INDEX 01 00:55:32
  TRACK 67 AUDIO
    TITLE "0:"
    INDEX 01 00:56:55
  TRACK 68 AUDIO
    TITLE "2:cjc153_2111"
    INDEX 01 00:57:25
  TRACK 69 AUDIO
    TITLE "0:"
    INDEX 01 00:58:60
  TRACK 70 AUDIO
    TITLE "3:cjc153_2112"
    INDEX 01 00:59:18
  TRACK 71 AUDIO
    TITLE "0:"
    INDEX 01 01:00:64
  TRACK 72 AUDIO
    TITLE "2:cjc153_2113"
    INDEX 01 01:01:34
  TRACK 73 AUDIO
    TITLE "0:"
    INDEX 01 01:02:54
  TRACK 74 AUDIO
    TITLE "3:cjc153_2114"
    INDEX 01 01:03:10
  TRACK 75 AUDIO
    TITLE "0:"
    INDEX 01 01:04:31
  TRACK 76 AUDIO
    TITLE "2:cjc153_2115"
    INDEX 01 01:05:03
  TRACK 77 AUDIO
    TITLE "0:"
    INDEX 01 01:06:24
  TRACK 78 AUDIO
    TITLE "3:cjc153_2116"
    INDEX 01 01:06:55
  TRACK 79 AUDIO
    TITLE "0:"
    INDEX 01 01:08:03
  TRACK 80 AUDIO
    TITLE "2:cjc153_2117"
    INDEX 01 01:08:46
  TRACK 81 AUDIO
    TITLE "0:"
    INDEX 01 01:09:52
  TRACK 82 AUDIO
    TITLE "3:cjc153_2118"
    INDEX 01 01:10:10
  TRACK 83 AUDIO
    TITLE "0:"
    INDEX 01 01:11:23
  TRACK 84 AUDIO
    TITLE "2:cjc153_2119"
    INDEX 01 01:11:66
  TRACK 85 AUDIO
    TITLE "0:"
    INDEX 01 01:12:66
  TRACK 86 AUDIO
    TITLE "3:cjc153_2120"
    INDEX 01 01:13:24
  TRACK 87 AUDIO
    TITLE "0:"
    INDEX 01 01:14:31
  TRACK 88 AUDIO
    TITLE "2:cjc153_2121"
    INDEX 01 01:14:74
  TRACK 89 AUDIO
    TITLE "0:"
    INDEX 01 01:15:74
  TRACK 90 AUDIO
    TITLE "3:cjc153_2122"
    INDEX 01 01:16:32
  TRACK 91 AUDIO
    TITLE "0:"
    INDEX 01 01:17:39
  TRACK 92 AUDIO
    TITLE "2:cjc153_2123"
    INDEX 01 01:18:07
  TRACK 93 AUDIO
    TITLE "0:"
    INDEX 01 01:19:19
  TRACK 94 AUDIO
    TITLE "3:cjc153_2124"
    INDEX 01 01:19:52
  TRACK 95 AUDIO
    TITLE "0:"
    INDEX 01 01:20:71
  TRACK 96 AUDIO
    TITLE "2:cjc153_2125"
    INDEX 01 01:21:41
  TRACK 97 AUDIO
    TITLE "0:"
    INDEX 01 01:23:09
  TRACK 98 AUDIO
    TITLE "3:cjc153_2126"
    INDEX 01 01:23:42
  TRACK 99 AUDIO
    TITLE "0:"
    INDEX 01 01:25:19
  TRACK 100 AUDIO
    TITLE "2:cjc153_2127"
    INDEX 01 01:25:66
  TRACK 101 AUDIO
    TITLE "0:"
    INDEX 01 01:26:72
  TRACK 102 AUDIO
    TITLE "3:cjc153_2128"
    INDEX 01 01:27:30
  TRACK 103 AUDIO
    TITLE "0:"
    INDEX 01 01:28:39
  TRACK 104 AUDIO
    TITLE "2:cjc153_2129"
    INDEX 01 01:29:07
  TRACK 105 AUDIO
    TITLE "0:"
    INDEX 01 01:30:54
  TRACK 106 AUDIO
    TITLE "3:cjc153_2130"
    INDEX 01 01:31:12
  TRACK 107 AUDIO
    TITLE "0:"
    INDEX 01 01:32:64
  TRACK 108 AUDIO
    TITLE "2:cjc153_2131"
    INDEX 01 01:33:34
  TRACK 109 AUDIO
    TITLE "0:"
    INDEX 01 01:34:38
  TRACK 110 AUDIO
    TITLE "3:cjc153_2132"
    INDEX 01 01:34:69
  TRACK 111 AUDIO
    TITLE "0:"
    INDEX 01 01:36:07
  TRACK 112 AUDIO
    TITLE "2:cjc153_2133"
    INDEX 01 01:36:50
  TRACK 113 AUDIO
    TITLE "0:"
    INDEX 01 01:37:60
  TRACK 114 AUDIO
    TITLE "3:cjc153_2134"
    INDEX 01 01:38:18
  TRACK 115 AUDIO
    TITLE "0:"
    INDEX 01 01:39:37
  TRACK 116 AUDIO
    TITLE "2:cjc153_2135"
    INDEX 01 01:40:07
  TRACK 117 AUDIO
    TITLE "0:"
    INDEX 01 01:41:10
  TRACK 118 AUDIO
    TITLE "3:cjc153_2136"
    INDEX 01 01:41:42
  TRACK 119 AUDIO
    TITLE "0:"
    INDEX 01 01:42:53
  TRACK 120 AUDIO
    TITLE "2:cjc153_2137"
    INDEX 01 01:43:23
  TRACK 121 AUDIO
    TITLE "0:"
    INDEX 01 01:44:21
  TRACK 122 AUDIO
    TITLE "3:cjc153_2138"
    INDEX 01 01:44:54
  TRACK 123 AUDIO
    TITLE "0:"
    INDEX 01 01:45:67
  TRACK 124 AUDIO
    TITLE "2:cjc153_2139"
    INDEX 01 01:46:37
  TRACK 125 AUDIO
    TITLE "0:"
    INDEX 01 01:47:33
  TRACK 126 AUDIO
    TITLE "3:cjc153_2140"
    INDEX 01 01:47:68
  TRACK 127 AUDIO
    TITLE "0:"
    INDEX 01 01:48:73
  TRACK 128 AUDIO
    TITLE "2:cjc153_2141"
    INDEX 01 01:49:41
  TRACK 129 AUDIO
    TITLE "0:"
    INDEX 01 01:50:23
  TRACK 130 AUDIO
    TITLE "3:cjc153_2142"
    INDEX 01 01:50:70
  TRACK 131 AUDIO
    TITLE "0:"
    INDEX 01 01:51:68
  TRACK 132 AUDIO
    TITLE "2:cjc153_2143"
    INDEX 01 01:52:40
  TRACK 133 AUDIO
    TITLE "0:"
    INDEX 01 01:53:49
  TRACK 134 AUDIO
    TITLE "3:cjc153_2144"
    INDEX 01 01:53:72
  TRACK 135 AUDIO
    TITLE "0:"
    INDEX 01 01:55:15
  TRACK 136 AUDIO
    TITLE "2:cjc153_2145"
    INDEX 01 01:55:60
  TRACK 137 AUDIO
    TITLE "0:"
    INDEX 01 01:56:69
  TRACK 138 AUDIO
    TITLE "3:cjc153_2146"
    INDEX 01 01:57:27
  TRACK 139 AUDIO
    TITLE "0:"
    INDEX 01 01:58:46
  TRACK 140 AUDIO
    TITLE "2:cjc153_2147"
    INDEX 01 01:59:14
  TRACK 141 AUDIO
    TITLE "0:"
    INDEX 01 02:00:27
  TRACK 142 AUDIO
    TITLE "3:cjc153_2148"
    INDEX 01 02:00:59
  TRACK 143 AUDIO
    TITLE "0:"
    INDEX 01 02:02:03
  TRACK 144 AUDIO
    TITLE "2:cjc153_2149"
    INDEX 01 02:02:50
  TRACK 145 AUDIO
    TITLE "0:"
    INDEX 01 02:03:65
  TRACK 146 AUDIO
    TITLE "3:cjc153_2150"
    INDEX 01 02:04:21
  TRACK 147 AUDIO
    TITLE "0:"
    INDEX 01 02:05:44
  TRACK 148 AUDIO
    TITLE "2:cjc153_2151"
    INDEX 01 02:06:14
  TRACK 149 AUDIO
    TITLE "0:"
    INDEX 01 02:07:31
  TRACK 150 AUDIO
    TITLE "3:cjc153_2152"
    INDEX 01 02:07:65
  TRACK 151 AUDIO
    TITLE "0:"
    INDEX 01 02:09:13
  TRACK 152 AUDIO
    TITLE "2:cjc153_2153"
    INDEX 01 02:09:62
  TRACK 153 AUDIO
    TITLE "0:"
    INDEX 01 02:10:71
  TRACK 154 AUDIO
    TITLE "3:cjc153_2154"
    INDEX 01 02:11:27
  TRACK 155 AUDIO
    TITLE "0:"
    INDEX 01 02:12:50
  TRACK 156 AUDIO
    TITLE "2:cjc153_2155"
    INDEX 01 02:13:20
  TRACK 157 AUDIO
    TITLE "0:"
    INDEX 01 02:14:14
  TRACK 158 AUDIO
    TITLE "3:cjc153_2156"
    INDEX 01 02:14:47
  TRACK 159 AUDIO
    TITLE "0:"
    INDEX 01 02:15:52
  TRACK 160 AUDIO
    TITLE "2:cjc153_2157"
    INDEX 01 02:16:23
  TRACK 161 AUDIO
    TITLE "0:"
    INDEX 01 02:17:18
  TRACK 162 AUDIO
    TITLE "3:cjc153_2158"
    INDEX 01 02:17:49
  TRACK 163 AUDIO
    TITLE "0:"
    INDEX 01 02:18:49
  TRACK 164 AUDIO
    TITLE "2:cjc153_2159"
    INDEX 01 02:19:19
  TRACK 165 AUDIO
    TITLE "0:"
    INDEX 01 02:20:22
  TRACK 166 AUDIO
    TITLE "3:cjc153_2160"
    INDEX 01 02:20:54
  TRACK 167 AUDIO
    TITLE "0:"
    INDEX 01 02:21:65
